<?xml version="1.0" encoding="utf-8"?>
<!-- Generator: Adobe Illustrator 17.1.0, SVG Export Plug-In . SVG Version: 6.00 Build 0)  -->
<!DOCTYPE svg PUBLIC "-//W3C//DTD SVG 1.1//EN" "http://www.w3.org/Graphics/SVG/1.1/DTD/svg11.dtd">
<svg version="1.1" id="Layer_1" xmlns="http://www.w3.org/2000/svg" xmlns:xlink="http://www.w3.org/1999/xlink" x="0px" y="0px"
	 viewBox="0 0 46 46" enable-background="new 0 0 46 46" xml:space="preserve">
<g id="_x37_02-share_x40_2x.png">
	<g>
		<path fill="#010101" d="M44,0H18c-1.104,0-2,0.896-2,2v7c0,0.552,0.447,1,1,1c0.553,0,1-0.448,1-1V2h26v38H18v-7
			c0-0.552-0.447-1-1-1c-0.553,0-1,0.448-1,1v7c0,1.104,0.896,2,2,2h26c1.104,0,2-0.896,2-2V2C46,0.895,45.104,0,44,0z M3.414,22H35
			c0.553,0,1-0.448,1-1c0-0.552-0.447-1-1-1H3.414l6.293-6.293C9.888,13.526,10,13.276,10,13c0-0.552-0.447-1-1-1
			c-0.276,0-0.526,0.112-0.707,0.294l-8,8C0.112,20.474,0,20.724,0,21c0,0.276,0.112,0.526,0.293,0.707l8,8
			C8.474,29.888,8.724,30,9,30c0.553,0,1-0.448,1-1c0-0.276-0.112-0.526-0.293-0.707L3.414,22z"/>
	</g>
</g>
</svg>
